<svg width="18" height="18" viewBox="0 0 18 18" fill="none" xmlns="http://www.w3.org/2000/svg">
<path d="M13.5057 0H4.49426C2.01215 0 0 2.01215 0 4.49426V13.5057C0 15.9879 2.01215 18 4.49426 18H13.5057C15.9879 18 18 15.9879 18 13.5057V4.49426C18 2.01215 15.9879 0 13.5057 0Z" fill="url(#paint0_linear_2446_6)"/>
<path d="M13.5057 0H4.49426C2.01215 0 0 2.01215 0 4.49426V13.5057C0 15.9879 2.01215 18 4.49426 18H13.5057C15.9879 18 18 15.9879 18 13.5057V4.49426C18 2.01215 15.9879 0 13.5057 0Z" fill="url(#paint1_radial_2446_6)"/>
<path fill-rule="evenodd" clip-rule="evenodd" d="M9.14765 15.8099C7.79752 15.8099 7.17009 15.6128 6.07949 14.8244C5.38964 15.7114 3.20514 16.4045 3.10987 15.2186C3.10987 14.3284 2.91277 13.5761 2.68939 12.7549C2.42331 11.7431 2.12109 10.6164 2.12109 8.98375C2.12109 5.08448 5.32067 2.151 9.11152 2.151C12.9057 2.151 15.8786 5.22902 15.8786 9.01987C15.8913 12.7521 12.8799 15.79 9.14765 15.8099ZM9.2035 5.52138C7.35735 5.42612 5.91852 6.70398 5.59988 8.70781C5.33708 10.3667 5.80355 12.387 6.20103 12.4921C6.39156 12.5381 6.87117 12.1505 7.17009 11.8515C7.6644 12.193 8.24001 12.3981 8.83887 12.4461C10.7518 12.5381 12.3863 11.0818 12.5147 9.171C12.5895 7.25613 11.1167 5.63425 9.2035 5.52467V5.52138Z" fill="white"/>
<defs>
<linearGradient id="paint0_linear_2446_6" x1="2.12125" y1="13.6896" x2="18" y2="9" gradientUnits="userSpaceOnUse">
<stop stop-color="#BABABA"/>
<stop offset="0.662" stop-color="#989898"/>
<stop offset="1" stop-color="#646464"/>
</linearGradient>
<radialGradient id="paint1_radial_2446_6" cx="0" cy="0" r="1" gradientUnits="userSpaceOnUse" gradientTransform="translate(-0.428234 -7.90534) rotate(51.356) scale(21.8433 9)">
<stop stop-color="#BABABA"/>
<stop offset="1" stop-opacity="0"/>
</radialGradient>
</defs>
</svg>
