<svg width="16" height="16" viewBox="0 0 16 16" fill="none" xmlns="http://www.w3.org/2000/svg">
<path d="M15.491 1.53844L14.4652 0.512812C14.122 0.170969 13.675 0 13.2249 0C12.777 0 12.3291 0.170906 11.9871 0.512812L5.23557 7.26562C4.97301 7.5 4.8386 7.79687 4.76359 8.11875L4.01029 11.475C3.95403 11.7531 4.1697 12 4.41038 12C4.43901 12 4.46827 11.9971 4.49781 11.9912C4.49781 11.9912 6.81177 11.5003 7.85482 11.255C8.17052 11.1807 8.45277 11.0219 8.68189 10.7928L15.4647 4.01152C16.1756 3.32812 16.1724 2.22188 15.491 1.53844ZM14.4314 2.95L7.64862 9.73125C7.61424 9.76562 7.57985 9.78437 7.53922 9.79375C7.111 9.89459 6.45616 10.0393 5.84196 10.1731L6.22986 8.44812C6.23892 8.40312 6.2608 8.35938 6.29519 8.32812L13.0499 1.575C13.1092 1.51281 13.178 1.5 13.2249 1.5C13.2718 1.5 13.341 1.51269 13.4015 1.57319L14.4274 2.59912C14.5283 2.69812 14.5283 2.85219 14.4314 2.95ZM13.253 9C12.8389 9 12.5029 9.33594 12.5029 9.75V13.75C12.5029 14.1634 12.1659 14.5 11.7527 14.5H2.25051C1.83729 14.5 1.50034 14.1634 1.50034 13.75V4.25C1.50034 3.83656 1.83729 3.5 2.25051 3.5H6.75154C7.1657 3.5 7.50171 3.16406 7.50171 2.75C7.50171 2.33594 7.16726 2 6.75154 2L2.22238 1.99969C1.00992 1.99969 0 3.00906 0 4.22188V13.7219C0 14.9906 1.00992 16 2.22238 16H11.6964C12.937 16 13.9188 14.9906 13.9188 13.75L14.0032 9.75C14.0032 9.3375 13.6687 9 13.253 9Z" fill="white"/>
</svg>
