<svg width="18" height="18" viewBox="0 0 18 18" fill="none" xmlns="http://www.w3.org/2000/svg">
<path fill-rule="evenodd" clip-rule="evenodd" d="M15.3774 2.61581C13.6853 0.929854 11.4351 0.000977574 9.03756 0C4.09766 0 0.0770898 4.00103 0.0751616 8.91884C0.0744704 10.4909 0.487169 12.0254 1.27149 13.378L0 18L4.75109 16.7597C6.06012 17.4703 7.534 17.8448 9.034 17.8453H9.03763C9.03734 17.8453 9.03793 17.8453 9.03763 17.8453C13.977 17.8453 17.9979 13.8439 18 8.92598C18.0009 6.54265 17.0695 4.30169 15.3774 2.61581ZM9.0376 16.339H9.03458C7.69797 16.3384 6.38693 15.981 5.2432 15.3056L4.97123 15.1449L2.15186 15.8809L2.90442 13.1453L2.72729 12.8647C1.98164 11.6844 1.58782 10.3201 1.5884 8.91935C1.59 4.83186 4.93175 1.50644 9.04062 1.50644C11.0303 1.50706 12.9006 2.27923 14.307 3.68053C15.7134 5.08183 16.4875 6.94447 16.4867 8.92536C16.4851 13.0132 13.1434 16.339 9.0376 16.339Z" fill="#BABABA"/>
<path fill-rule="evenodd" clip-rule="evenodd" d="M13.1234 10.7866C12.8995 10.675 11.7985 10.136 11.5932 10.0615C11.3879 9.98716 11.2386 9.94998 11.0894 10.1731C10.9401 10.3962 10.5109 10.8982 10.3803 11.047C10.2497 11.1956 10.119 11.2143 9.89512 11.1027C9.6712 10.9911 8.94963 10.7558 8.09429 9.99654C7.42853 9.40554 6.97912 8.67577 6.84845 8.45259C6.71784 8.22952 6.83455 8.10892 6.94667 7.99776C7.04741 7.89787 7.17063 7.73748 7.28261 7.60731C7.39455 7.47722 7.43188 7.38417 7.50653 7.23555C7.58118 7.08677 7.54389 6.95661 7.48787 6.8451C7.43188 6.73354 6.98404 5.63656 6.79744 5.19024C6.61561 4.75573 6.43102 4.8146 6.29354 4.80769C6.16311 4.8012 6.01363 4.79987 5.86436 4.79987C5.71509 4.79987 5.47243 4.85566 5.26721 5.07873C5.06195 5.30187 4.4834 5.84109 4.4834 6.93797C4.4834 8.03498 5.28584 9.09475 5.39782 9.24345C5.50976 9.39226 6.97691 11.6433 9.22332 12.6087C9.7576 12.8383 10.1747 12.9754 10.4999 13.0781C11.0364 13.2478 11.5246 13.2238 11.9104 13.1664C12.3407 13.1024 13.2354 12.6273 13.422 12.1068C13.6086 11.5861 13.6086 11.1398 13.5526 11.0469C13.4966 10.954 13.3473 10.8982 13.1234 10.7866Z" fill="#BABABA"/>
</svg>
