<svg width="60" height="60" viewBox="0 0 60 60" fill="none" xmlns="http://www.w3.org/2000/svg">
<rect width="60" height="60" rx="30" fill="white" fill-opacity="0.07"/>
<path d="M30.6931 16.1781C30.5458 16.1895 30.4008 16.2098 30.2581 16.2506L20.0356 19.1506C18.8869 19.4769 18.205 20.6845 18.5312 21.8331L23.3162 38.6531C23.3253 38.7098 23.3434 38.7641 23.3706 38.8163L24.0593 41.2631C24.3856 42.4118 25.5932 43.0756 26.7418 42.7494L36.9643 39.8494C38.113 39.5231 38.795 38.3155 38.4687 37.1669L37.7981 34.8106C37.8072 34.6747 37.7686 34.541 37.6893 34.43L32.9406 17.7369C32.6959 16.8759 31.9686 16.2846 31.1281 16.1781C30.9876 16.16 30.8404 16.1668 30.6931 16.1781ZM30.7837 17.32C31.2572 17.2838 31.699 17.5873 31.835 18.0631L36.4568 34.3756L24.2768 37.8194L19.655 21.5069C19.5009 20.9609 19.8158 20.4103 20.3618 20.2563L30.5843 17.3563C30.6523 17.3359 30.7158 17.3245 30.7837 17.32ZM36.1487 21.1806C35.9811 21.2078 35.8338 21.3098 35.7454 21.457C35.6593 21.602 35.639 21.781 35.6956 21.9419L38.5956 32.1644C38.6862 32.4748 39.0102 32.6538 39.3206 32.5631C39.631 32.4725 39.81 32.1485 39.7193 31.8381L36.8193 21.6156C36.7536 21.3596 36.5225 21.1806 36.2575 21.1806C36.2393 21.1806 36.2212 21.1806 36.2031 21.1806C36.185 21.1806 36.1668 21.1806 36.1487 21.1806ZM39.4293 23.0113C39.2617 23.0384 39.1144 23.1404 39.0261 23.2877C38.94 23.4327 38.9196 23.6116 38.9762 23.7725L40.4262 28.8838C40.5168 29.1941 40.8408 29.3731 41.1512 29.2825C41.4616 29.1919 41.6406 28.8679 41.55 28.5575L40.1 23.4463C40.0343 23.1902 39.8032 23.0113 39.5381 23.0113C39.52 23.0113 39.5018 23.0113 39.4837 23.0113C39.4656 23.0113 39.4475 23.0113 39.4293 23.0113ZM17.7881 26.4006C17.77 26.4052 17.7518 26.412 17.7337 26.4188C17.5706 26.4482 17.4256 26.5456 17.3395 26.6884C17.2534 26.8311 17.2308 27.0033 17.2806 27.1619L20.1806 37.3844C20.2712 37.6948 20.5952 37.8738 20.9056 37.7831C21.216 37.6925 21.395 37.3685 21.3043 37.0581L18.4043 26.8356C18.3386 26.5796 18.1075 26.4006 17.8425 26.4006C17.8243 26.4006 17.8062 26.4006 17.7881 26.4006ZM15.9575 29.6813C15.9393 29.6858 15.9212 29.6926 15.9031 29.6994C15.74 29.7288 15.595 29.8263 15.5089 29.969C15.4228 30.1117 15.4001 30.2839 15.45 30.4425L16.9 35.5538C16.9906 35.8641 17.3146 36.0431 17.625 35.9525C17.9354 35.8619 18.1143 35.5379 18.0237 35.2275L16.5737 30.1163C16.508 29.8602 16.2769 29.6813 16.0118 29.6813C15.9937 29.6813 15.9756 29.6813 15.9575 29.6813ZM36.7831 35.4994L37.345 37.4931C37.499 38.0391 37.1841 38.5897 36.6381 38.7438L26.4156 41.6438C25.8696 41.7978 25.319 41.4829 25.165 40.9369L24.6031 38.9431L36.7831 35.4994ZM31.0556 37.91C31.0035 37.9145 30.9446 37.9123 30.8925 37.9281C30.4688 38.0482 30.2286 38.5013 30.3487 38.925C30.4688 39.3487 30.9038 39.5888 31.3275 39.4688C31.7511 39.3487 31.9913 38.9137 31.8712 38.49C31.767 38.1184 31.4249 37.8828 31.0556 37.91Z" fill="#606571"/>
</svg>
